#!OML:ASF F:\VICON\USERDATA\INSTALL\rory3\rory3.ASF
:FULLY-SPECIFIED
:DEGREES
64
root 5.73653 18.0798 -17.5071 -3.21633 -2.81349 0.0459732
lowerback 10.0028 1.14545 -0.775358
upperback 0.191285 1.48412 0.893061
thorax -5.45782 0.762733 1.15321
lowerneck -17.3633 -3.18741 -1.57182
upperneck 19.5786 -3.97739 -0.05206
head 9.04064 -1.9872 -0.26651
rclavicle 2.83517e-014 8.34896e-015
rhumerus -30.8413 -17.2242 -78.6797
rradius 27.186
rwrist 4.28003
rhand -14.0647 12.6828
rfingers 7.12502
rthumb 12.0667 -16.9493
lclavicle 2.83517e-014 8.34896e-015
lhumerus -36.4277 3.56728 82.6877
lradius 19.5354
lwrist 2.54072
lhand -26.3062 27.8963
lfingers 7.12502
lthumb 0.249972 57.8759
rfemur -12.4823 -0.331524 20.7089
rtibia 72.0828
rfoot 4.74901 -3.74968
rtoes 10.8442
lfemur -12.1621 -3.41934 -23.1178
ltibia 24.9918
lfoot -7.04173 -1.13713
ltoes -2.02935
65
root 5.74546 18.097 -17.3315 -2.98882 -2.62832 0.267772
lowerback 9.62274 1.03434 -1.01221
upperback -0.230356 1.31521 0.920437
thorax -5.68841 0.69013 1.34246
lowerneck -15.6565 -3.15484 -1.79424
upperneck 19.0915 -3.92551 0.0404895
head 8.57213 -1.97803 -0.15739
rclavicle -2.56867e-015 -8.15017e-015
rhumerus -31.8579 -17.4363 -78.1008
rradius 26.8886
rwrist 4.882
rhand -13.8886 13.597
rfingers 7.12502
rthumb 12.2366 -16.025
lclavicle -2.56867e-015 -8.15017e-015
lhumerus -36.8157 3.72314 82.4999
lradius 19.8525
lwrist 1.5833
lhand -26.1378 29.6972
lfingers 7.12502
lthumb 0.412636 59.6766
rfemur -13.8686 -0.616188 20.4705
rtibia 72.4052
rfoot 3.39629 -4.19075
rtoes 10.4457
lfemur -11.5828 -3.66241 -23.4886
ltibia 24.5747
lfoot -7.36464 -0.831358
ltoes -1.83904
66
root 5.74855 18.1019 -17.1692 -3.00031 -2.43771 0.457814
lowerback 9.78324 0.928593 -1.23229
upperback -0.0645002 1.14767 0.925152
thorax -5.60367 0.612317 1.49474
lowerneck -16.6684 -3.10792 -1.75254
upperneck 19.356 -3.84134 -0.00726827
head 8.8424 -1.93571 -0.190108
rclavicle 7.3923e-015 1.59028e-014
rhumerus -31.5579 -17.7286 -78.1065
rradius 26.6685
rwrist 5.22369
rhand -13.7826 15.529
rfingers 7.12502
rthumb 12.3387 -14.0869
lclavicle 7.3923e-015 1.59028e-014
lhumerus -35.778 3.64998 82.5077
lradius 20.025
lwrist 0.944353
lhand -25.7614 30.3731
lfingers 7.12502
lthumb 0.776226 60.3514
rfemur -15.0655 -0.886794 20.289
rtibia 72.6089
rfoot 1.73233 -4.43061
rtoes 10.5524
lfemur -10.9275 -3.81151 -23.8273
ltibia 24.3057
lfoot -7.64503 -0.606673
ltoes -1.68135
67
root 5.74759 18.1058 -17.0084 -3.12022 -2.20034 0.470453
lowerback 10.0039 0.772433 -1.2966
upperback -0.0993792 0.934747 1.00093
thorax -5.7594 0.511705 1.63928
lowerneck -16.5655 -3.0457 -1.84946
upperneck 19.4091 -3.73513 0.00366613
head 8.84347 -1.89234 -0.15612
rclavicle -6.94504e-015 1.59028e-015
rhumerus -31.8224 -17.608 -78.0367
rradius 26.7026
rwrist 5.39299
rhand -13.9497 18.6555
rfingers 7.12502
rthumb 12.1776 -10.97
lclavicle -6.94504e-015 1.59028e-015
lhumerus -35.3872 3.35132 82.6143
lradius 20.3932
lwrist 1.03444
lhand -27.4206 27.8967
lfingers 7.12502
lthumb -0.826327 57.8749
rfemur -16.1237 -1.23873 20.3351
rtibia 72.6808
rfoot 0.0924316 -4.47065
rtoes 9.899
lfemur -10.1426 -3.85321 -23.9609
ltibia 24.2313
lfoot -8.18053 -0.459211
ltoes -1.74814
68
root 5.74697 18.1043 -16.8547 -3.1221 -2.01095 0.440041
lowerback 10.1029 0.642351 -1.31903
upperback -0.127246 0.762408 1.07414
thorax -5.83918 0.429492 1.75372
lowerneck -16.2823 -2.99487 -1.86397
upperneck 19.2674 -3.65646 -0.0405519
head 8.7425 -1.86259 -0.152882
rclavicle 5.69642e-015 2.78299e-015
rhumerus -32.0929 -17.5437 -77.9855
rradius 26.8644
rwrist 5.52998
rhand -14.508 22.2379
rfingers 7.12502
rthumb 11.6392 -7.41879
lclavicle 5.69642e-015 2.78299e-015
lhumerus -34.9771 3.0425 82.7176
lradius 20.7721
lwrist 1.37863
lhand -28.6495 25.5783
lfingers 7.12502
lthumb -2.01317 55.5485
rfemur -17.3449 -1.43822 20.4857
rtibia 72.6117
rfoot -1.16079 -4.54776
rtoes 10.8114
lfemur -9.62478 -3.79891 -24.017
ltibia 24.4458
lfoot -8.77401 -0.294148
ltoes -1.91298
69
root 5.74862 18.0949 -16.6979 -3.1079 -1.71746 0.706656
lowerback 10.2064 0.574946 -1.64301
upperback -0.146832 0.632477 1.06527
thorax -5.91662 0.375894 1.94655
lowerneck -16.2408 -3.04734 -1.92444
upperneck 19.1823 -3.7277 0.0224742
head 8.70922 -1.89392 -0.128934
rclavicle 4.69008e-015 -2.78299e-015
rhumerus -32.3715 -17.6828 -77.8415
rradius 26.7109
rwrist 4.76247
rhand -14.5833 25.7339
rfingers 7.12502
rthumb 11.5667 -3.92694
lclavicle 4.69008e-015 -2.78299e-015
lhumerus -34.5452 2.40865 82.9494
lradius 21.1888
lwrist 1.90329
lhand -27.6516 25.6212
lfingers 7.12502
lthumb -1.04938 55.5983
rfemur -18.5977 -1.73259 20.2664
rtibia 72.42
rfoot -2.34684 -4.60535
rtoes 10.8547
lfemur -9.25223 -3.86152 -24.431
ltibia 24.8096
lfoot -9.40943 -0.139696
ltoes -2.07748
